<?xml version="1.0" encoding="UTF-8"?>
<svg version="1.1" xmlns="http://www.w3.org/2000/svg" width="500" height="500">
<path d="M0 0 C4.91518662 2.59670237 9.22979841 5.37832621 11.3125 10.75 C12.22003761 17.26856339 12.30537082 23.12064104 8.625 28.75 C5.14594459 33.21137694 1.68663015 37.62665487 -3.6875 39.75 C-6.6328125 39.98046875 -6.6328125 39.98046875 -9.8125 39.9375 C-10.86695313 39.93105469 -11.92140625 39.92460937 -13.0078125 39.91796875 C-15.6875 39.75 -15.6875 39.75 -17.6875 38.75 C-17.6875 38.09 -17.6875 37.43 -17.6875 36.75 C-15.7075 36.255 -15.7075 36.255 -13.6875 35.75 C-13.6875 35.09 -13.6875 34.43 -13.6875 33.75 C-13.0275 33.75 -12.3675 33.75 -11.6875 33.75 C-11.6875 33.09 -11.6875 32.43 -11.6875 31.75 C-11.0275 31.75 -10.3675 31.75 -9.6875 31.75 C-9.41035156 31.18539062 -9.13320312 30.62078125 -8.84765625 30.0390625 C-7.66207278 27.69983048 -6.40666503 25.41286772 -5.125 23.125 C-2.38338672 18.22751871 -1.47785699 15.51518271 -1.6875 9.75 C-2.1825 9.255 -2.1825 9.255 -2.6875 8.75 C-14.30028046 9.46098656 -21.96838293 16.75896579 -29.6875 24.75 C-34.32033788 30.00616516 -38.12569355 35.73091941 -41.6875 41.75 C-42.04714844 42.32363281 -42.40679687 42.89726562 -42.77734375 43.48828125 C-48.50710365 52.89373618 -50.99850862 63.95664948 -49.3671875 74.8984375 C-48.75393795 77.13177145 -48.75393795 77.13177145 -45.6875 78.75 C-39.0769681 80.4262903 -33.19291392 79.2910456 -26.6875 77.75 C-24.68939338 77.40549886 -22.69027585 77.06622777 -20.6875 76.75 C-20.6875 76.09 -20.6875 75.43 -20.6875 74.75 C-19.8315625 74.36328125 -18.975625 73.9765625 -18.09375 73.578125 C-14.3559661 71.57206667 -11.38004955 69.26191344 -8.1875 66.5 C-7.61580078 66.00838379 -7.04410156 65.51676758 -6.45507812 65.01025391 C-0.22430552 59.57706302 4.19702107 54.28632811 8.0859375 46.97265625 C9.9141192 43.65980469 11.97118143 40.72410737 14.3125 37.75 C14.9725 37.75 15.6325 37.75 16.3125 37.75 C16.3125 37.09 16.3125 36.43 16.3125 35.75 C16.9725 35.75 17.6325 35.75 18.3125 35.75 C18.3125 35.09 18.3125 34.43 18.3125 33.75 C18.9725 33.75 19.6325 33.75 20.3125 33.75 C20.3125 33.09 20.3125 32.43 20.3125 31.75 C20.9725 31.75 21.6325 31.75 22.3125 31.75 C22.3125 31.09 22.3125 30.43 22.3125 29.75 C35.28754456 22.59135472 35.28754456 22.59135472 41.3125 23.75 C45.93890039 25.48819218 50.39083745 27.65967244 53.3125 31.75 C54.1875 35.3125 54.1875 35.3125 54.3125 38.75 C53.6525 39.74 52.9925 40.73 52.3125 41.75 C50.9925 41.75 49.6725 41.75 48.3125 41.75 C47.3225 38.78 47.3225 38.78 46.3125 35.75 C40.10159611 35.3216618 37.41520842 35.86222216 32.3125 39.75 C31.6525 39.75 30.9925 39.75 30.3125 39.75 C30.3125 40.41 30.3125 41.07 30.3125 41.75 C29.6525 41.75 28.9925 41.75 28.3125 41.75 C28.04050781 42.3171875 27.76851563 42.884375 27.48828125 43.46875 C26.2757816 45.82124101 24.91313918 48.01284035 23.5 50.25 C18.88425329 57.89024578 15.47740722 66.0903711 13.3125 74.75 C14.3025 74.75 15.2925 74.75 16.3125 74.75 C16.3125 74.09 16.3125 73.43 16.3125 72.75 C16.9725 72.75 17.6325 72.75 18.3125 72.75 C18.5703125 72.20859375 18.828125 71.6671875 19.09375 71.109375 C20.53716294 68.31507559 22.14688534 65.66780654 23.8125 63 C24.4209375 62.01515625 25.029375 61.0303125 25.65625 60.015625 C26.2028125 59.26796875 26.749375 58.5203125 27.3125 57.75 C27.9725 57.75 28.6325 57.75 29.3125 57.75 C29.539375 57.04875 29.76625 56.3475 30 55.625 C31.65091288 52.00871465 33.6033835 49.66230024 36.3125 46.75 C36.9725 46.75 37.6325 46.75 38.3125 46.75 C38.3125 46.09 38.3125 45.43 38.3125 44.75 C41.3125 42.75 41.3125 42.75 44.3125 43.0625 C47.3125 43.75 47.3125 43.75 50.3125 44.75 C50.3125 45.41 50.3125 46.07 50.3125 46.75 C50.9725 46.75 51.6325 46.75 52.3125 46.75 C53.18191695 49.6986852 53.51410598 51.24762412 52.3515625 54.14453125 C51.88492188 54.94246094 51.41828125 55.74039063 50.9375 56.5625 C48.47141437 61.11895184 47.59855574 64.60099668 47.3125 69.75 C51.52563752 67.16466561 54.29293774 64.63229434 57.3125 60.75 C57.9725 60.75 58.6325 60.75 59.3125 60.75 C59.9725 59.1 60.6325 57.45 61.3125 55.75 C61.9725 55.75 62.6325 55.75 63.3125 55.75 C64.3025 52.78 64.3025 52.78 65.3125 49.75 C64.6525 49.09 63.9925 48.43 63.3125 47.75 C63.1875 44.125 63.1875 44.125 63.3125 40.75 C64.50875 40.8325 65.705 40.915 66.9375 41 C69.20531447 40.85084653 69.20531447 40.85084653 71.3125 39.75 C73.90311502 36.01060546 75.53620523 31.92271611 77.3125 27.75 C78.58394567 25.37294941 79.94088968 23.07118669 81.3125 20.75 C81.9725 20.75 82.6325 20.75 83.3125 20.75 C83.55613281 20.03457031 83.79976562 19.31914062 84.05078125 18.58203125 C86.34445296 13.43369692 90.08292677 9.42396426 94.3125 5.75 C98.78894026 4.70549727 100.31481074 5.17685936 104.25 7.4375 C106.3125 9.75 106.3125 9.75 106.6484375 12.22265625 C106.3125 14.75 106.3125 14.75 104.94921875 16.171875 C104.30597656 16.61015625 103.66273438 17.0484375 103 17.5 C96.06117476 23.04358569 91.87517002 31.25869139 87.3125 38.75 C88.43398438 38.78867187 88.43398438 38.78867187 89.578125 38.828125 C97.58881579 39.28947368 97.58881579 39.28947368 101.0625 41.5 C102.3125 43.75 102.3125 43.75 101.3125 48.75 C94.8775 49.245 94.8775 49.245 88.3125 49.75 C88.51875 51.565 88.725 53.38 88.9375 55.25 C90.11593111 71.26279917 86.93252156 91.40330342 77.3125 104.75 C76.87292969 105.36617188 76.43335938 105.98234375 75.98046875 106.6171875 C73.88669415 109.12048826 72.32877358 110.51796586 69.10546875 111.25390625 C65.263481 111.45142137 62.88734556 111.06935864 59.5 109.1875 C53.27052347 102.2460833 52.89364044 97.65662038 53.07421875 88.37109375 C53.28963517 85.09747039 53.70210982 81.97067665 54.3125 78.75 C52.6625 79.41 51.0125 80.07 49.3125 80.75 C49.3125 81.41 49.3125 82.07 49.3125 82.75 C46.18075576 84.60584844 43.94505984 85.28159412 40.3125 84.75 C36.86414293 82.50455819 34.80083977 80.57523524 33.3125 76.75 C33.1171875 73.953125 33.1171875 73.953125 33.1875 71 C33.20554687 70.01515625 33.22359375 69.0303125 33.2421875 68.015625 C33.26539063 67.26796875 33.28859375 66.5203125 33.3125 65.75 C31.92518452 67.13731548 31.02788081 68.72815757 29.984375 70.390625 C29.27861328 71.50244141 29.27861328 71.50244141 28.55859375 72.63671875 C27.5727264 74.19402879 26.59085163 75.75387461 25.61328125 77.31640625 C18.94710476 87.77634172 18.94710476 87.77634172 13.4375 89.8125 C9.27406509 89.7292313 6.4250315 88.40925022 3.3125 85.75 C0.73290192 82.39341455 -0.73880076 78.86103004 -1.6875 74.75 C-2.6775 74.255 -2.6775 74.255 -3.6875 73.75 C-3.6875 74.41 -3.6875 75.07 -3.6875 75.75 C-5.5859375 77.4765625 -5.5859375 77.4765625 -8.0625 79.375 C-8.87460938 80.00664062 -9.68671875 80.63828125 -10.5234375 81.2890625 C-12.6875 82.75 -12.6875 82.75 -14.6875 82.75 C-14.6875 83.41 -14.6875 84.07 -14.6875 84.75 C-24.68733915 90.59549421 -32.92773733 94.0893063 -44.6875 92.75 C-50.26071226 91.21420003 -55.6723149 89.01613417 -59.6875 84.75 C-61 81.5 -61 81.5 -61.6875 78.75 C-62.3475 78.75 -63.0075 78.75 -63.6875 78.75 C-68.70235442 65.40401647 -65.23213579 52.29612155 -59.6875 39.75 C-57.64950967 35.81959007 -55.32149399 32.3027056 -52.6875 28.75 C-51.89500935 27.63991069 -51.10338612 26.52920178 -50.3125 25.41796875 C-45.96333567 19.40591413 -45.96333567 19.40591413 -43.6875 16.75 C-43.0275 16.75 -42.3675 16.75 -41.6875 16.75 C-41.6875 16.09 -41.6875 15.43 -41.6875 14.75 C-41.0275 14.75 -40.3675 14.75 -39.6875 14.75 C-39.6875 14.09 -39.6875 13.43 -39.6875 12.75 C-39.0275 12.75 -38.3675 12.75 -37.6875 12.75 C-37.6875 12.09 -37.6875 11.43 -37.6875 10.75 C-35.74066221 9.16424496 -33.81623475 7.72758881 -31.75 6.3125 C-31.16041504 5.90580078 -30.57083008 5.49910156 -29.96337891 5.08007812 C-25.41249433 2.03542867 -21.02389172 0.04367072 -15.6875 -1.25 C-10.34721721 -3.03009426 -5.23738451 -1.77538458 0 0 Z M80.3125 50.75 C68.56849449 74.36384709 68.56849449 74.36384709 67.3125 99.75 C74.03845479 93.75117546 75.78989633 86.62546135 77.9375 78.1875 C78.26234375 76.9509668 78.26234375 76.9509668 78.59375 75.68945312 C80.2766596 69.19155218 81.44997418 63.12267598 81.375 56.375 C81.36597656 55.31539063 81.35695313 54.25578125 81.34765625 53.1640625 C81.33605469 52.36742187 81.32445312 51.57078125 81.3125 50.75 C80.9825 50.75 80.6525 50.75 80.3125 50.75 Z " fill="#9793F7" transform="translate(214.6875,242.25)"/>
<path d="M0 0 C24 0 24 0 30 3 C36.20414695 9.6473003 35.36657341 17.78057589 35.375 26.3125 C35.39949219 27.60607422 35.42398438 28.89964844 35.44921875 30.23242188 C35.47184384 37.60442874 35.14230704 42.80193835 31 49 C30.01 49.495 30.01 49.495 29 50 C29.60814341 56.55101319 31.16581648 62.52395998 33.0625 68.8125 C33.61948832 70.67210174 34.1730349 72.53273883 34.72265625 74.39453125 C35.09015991 75.61426636 35.09015991 75.61426636 35.46508789 76.85864258 C36 79 36 79 36 82 C31.71 82 27.42 82 23 82 C21.82876523 77.7303712 20.66282408 73.45941937 19.5 69.1875 C19.16613281 67.97255859 18.83226562 66.75761719 18.48828125 65.50585938 C18.17246094 64.34248047 17.85664063 63.17910156 17.53125 61.98046875 C17.09135742 60.37014771 17.09135742 60.37014771 16.64257812 58.72729492 C16 56 16 56 16 53 C15.01 53 14.02 53 13 53 C13 62.57 13 72.14 13 82 C8.71 82 4.42 82 0 82 C0 54.94 0 27.88 0 0 Z M13 11 C13 21.23 13 31.46 13 42 C19.63333333 41.76666667 19.63333333 41.76666667 22 39 C23.1607777 34.90400734 23.16601173 30.86248769 23.1875 26.625 C23.20876953 24.72621094 23.20876953 24.72621094 23.23046875 22.7890625 C22.98584786 18.76732923 22.36128705 15.77339218 21 12 C18.47825081 10.5527864 18.47825081 10.5527864 13 11 Z " fill="#D182A5" transform="translate(305,155)"/>
<path d="M0 0 C4.29 0 8.58 0 13 0 C13.33 23.43 13.66 46.86 14 71 C16.31 71 18.62 71 21 71 C23.81045385 68.18954615 23.27588114 66.37756244 23.31884766 62.43896484 C23.32889328 61.76567642 23.3389389 61.092388 23.34928894 60.3986969 C23.38022182 58.16945259 23.39718368 55.94032891 23.4140625 53.7109375 C23.43276607 52.16678828 23.45233887 50.62264935 23.4727478 49.07852173 C23.5241609 45.01137355 23.56373727 40.9441922 23.60089111 36.87689209 C23.64087343 32.7277398 23.69199202 28.57872658 23.7421875 24.4296875 C23.83905537 16.28655319 23.92342514 8.14335029 24 0 C27.96 0 31.92 0 36 0 C36.04633574 9.44891862 36.0818755 18.89779814 36.10362434 28.34680557 C36.11406257 32.73433698 36.12822249 37.12179067 36.15087891 41.50927734 C36.17260589 45.74326085 36.18456834 49.97716958 36.18975449 54.21120453 C36.1934505 55.82674079 36.20066785 57.44227296 36.21146011 59.0577774 C36.22597318 61.32018383 36.22797803 63.58228109 36.22705078 65.84472656 C36.231492 67.13268127 36.23593323 68.42063599 36.24050903 69.74761963 C36.01575378 72.78696318 35.61183256 74.46112546 34 77 C33.34 77 32.68 77 32 77 C32 77.66 32 78.32 32 79 C27.71379614 82.47988828 23.82387889 82.45728047 18.5625 82.375 C17.82451172 82.38660156 17.08652344 82.39820313 16.32617188 82.41015625 C11.54089395 82.38463477 7.94125323 81.96019307 4 79 C-1.29523328 71.48464087 -0.51486667 62.56496777 -0.390625 53.80859375 C-0.38315161 52.25204703 -0.37746387 50.69549082 -0.37347412 49.13893127 C-0.35830394 45.06990947 -0.31909854 41.00147156 -0.2746582 36.93267822 C-0.23351776 32.76965225 -0.2154233 28.60653065 -0.1953125 24.44335938 C-0.15259398 16.29527694 -0.08231678 8.14777869 0 0 Z " fill="#CE7A9F" transform="translate(261,155)"/>
<path d="M0 0 C0.83265381 0.00523682 1.66530762 0.01047363 2.52319336 0.01586914 C3.42231445 0.0190918 4.32143555 0.02231445 5.24780273 0.02563477 C6.66609375 0.03820312 6.66609375 0.03820312 8.11303711 0.05102539 C9.06243164 0.05553711 10.01182617 0.06004883 10.98999023 0.06469727 C13.34356776 0.07652429 15.69702188 0.09300514 18.05053711 0.11352539 C18.98977638 7.73831189 19.92704961 15.36333905 20.86303711 22.98852539 C21.06937271 24.6693924 21.06937271 24.6693924 21.27987671 26.38421631 C22.96998253 40.16324763 24.64951815 53.94251237 26.20019531 67.73803711 C26.74185239 72.5436841 27.3363318 77.33031549 28.05053711 82.11352539 C25.90477074 82.14038477 23.75891066 82.15985627 21.61303711 82.17602539 C20.41807617 82.18762695 19.22311523 82.19922852 17.99194336 82.21118164 C15.05053711 82.11352539 15.05053711 82.11352539 14.05053711 81.11352539 C13.89433156 79.70024592 13.79997538 78.27997949 13.73413086 76.85961914 C13.69223633 76.00561523 13.6503418 75.15161133 13.60717773 74.27172852 C13.56786133 73.37389648 13.52854492 72.47606445 13.48803711 71.55102539 C13.44485352 70.64932617 13.40166992 69.74762695 13.35717773 68.81860352 C13.25075727 66.58377384 13.1501123 64.34867053 13.05053711 62.11352539 C9.42053711 62.11352539 5.79053711 62.11352539 2.05053711 62.11352539 C2.07374023 63.05454102 2.09694336 63.99555664 2.12084961 64.96508789 C2.14791992 66.83293945 2.14791992 66.83293945 2.17553711 68.73852539 C2.19874023 69.96829102 2.22194336 71.19805664 2.24584961 72.46508789 C2.05357991 76.0566858 1.35312267 78.78013714 0.05053711 82.11352539 C-3.90946289 82.11352539 -7.86946289 82.11352539 -11.94946289 82.11352539 C-11.32805974 73.47898071 -10.53268293 64.89683527 -9.51196289 56.30102539 C-9.37854492 55.16084961 -9.24512695 54.02067383 -9.10766602 52.84594727 C-8.27010323 45.7205943 -7.39617427 38.60087727 -6.48461914 31.48461914 C-6.02235378 27.79282867 -5.60766124 24.09638848 -5.19555664 20.39868164 C-5.06213867 19.20952148 -4.9287207 18.02036133 -4.79125977 16.79516602 C-4.52453805 14.40755571 -4.26143778 12.01953769 -4.00219727 9.63110352 C-3.88038086 8.5437793 -3.75856445 7.45645508 -3.63305664 6.33618164 C-3.52533936 5.35399658 -3.41762207 4.37181152 -3.30664062 3.35986328 C-2.79831841 0.1629578 -2.79831841 0.1629578 0 0 Z M7.05053711 11.11352539 C6.61902703 15.54224187 6.19193743 19.97135661 5.76879883 24.40087891 C5.62448229 25.90522544 5.47899422 27.40946008 5.33227539 28.91357422 C5.12063539 31.08540379 4.91332223 33.25761137 4.70678711 35.42993164 C4.58110352 36.73389893 4.45541992 38.03786621 4.32592773 39.38134766 C4.0607572 42.97501956 4.00161573 46.51168901 4.05053711 50.11352539 C6.36053711 50.11352539 8.67053711 50.11352539 11.05053711 50.11352539 C10.35784266 30.59650286 10.35784266 30.59650286 9.05053711 11.11352539 C8.39053711 11.11352539 7.73053711 11.11352539 7.05053711 11.11352539 Z " fill="#D07EA3" transform="translate(143.949462890625,154.886474609375)"/>
<path d="M0 0 C1.20269531 -0.02578125 2.40539062 -0.0515625 3.64453125 -0.078125 C8.15577675 0.33967502 11.33602296 1.86139222 14.9375 4.5625 C18.83219718 9.8203412 18.43418124 15.9098967 18.3125 22.125 C18.30347656 23.00414062 18.29445313 23.88328125 18.28515625 24.7890625 C18.26174577 26.9428271 18.2258801 29.09645014 18.1875 31.25 C14.2275 31.25 10.2675 31.25 6.1875 31.25 C6.12691406 29.96222656 6.06632812 28.67445313 6.00390625 27.34765625 C5.91951753 25.66925841 5.8348687 23.99087364 5.75 22.3125 C5.71068359 21.46236328 5.67136719 20.61222656 5.63085938 19.73632812 C5.58896484 18.92744141 5.54707031 18.11855469 5.50390625 17.28515625 C5.46724854 16.5362915 5.43059082 15.78742676 5.39282227 15.01586914 C5.36978937 13.22538674 5.36978937 13.22538674 4.1875 12.25 C1.85452567 12.20907063 -0.47955225 12.20758277 -2.8125 12.25 C-4.84094688 15.61464602 -5.08234677 18.22511012 -5.0625 22.125 C-5.06765625 23.13304687 -5.0728125 24.14109375 -5.078125 25.1796875 C-4.77609329 28.67081871 -4.43769497 31.12259778 -2.8125 34.25 C-0.23420932 35.43951584 1.85585691 36.19833923 4.5625 36.875 C9.36331165 38.14418009 13.0648204 39.15055806 16.1875 43.25 C18.80561471 48.80108843 18.55520821 54.02854692 18.5625 60.0625 C18.58699219 61.11759766 18.61148438 62.17269531 18.63671875 63.25976562 C18.66091584 69.73248818 18.1910453 74.97452528 14.1875 80.25 C10.12312268 83.85722416 5.9332921 83.73703624 0.75 83.6875 C0.01201172 83.70748047 -0.72597656 83.72746094 -1.48632812 83.74804688 C-6.7022634 83.74341049 -9.68668682 82.68817765 -13.8125 79.25 C-19.18068456 70.92005844 -18.37762479 60.64074877 -16.8125 51.25 C-13.1825 51.25 -9.5525 51.25 -5.8125 51.25 C-5.75191406 52.43078125 -5.69132812 53.6115625 -5.62890625 54.828125 C-5.54447418 56.3854277 -5.45982751 57.94271879 -5.375 59.5 C-5.33568359 60.27730469 -5.29636719 61.05460937 -5.25585938 61.85546875 C-5.19301758 62.98662109 -5.19301758 62.98662109 -5.12890625 64.140625 C-5.07391968 65.17751465 -5.07391968 65.17751465 -5.01782227 66.23535156 C-4.80574476 68.31628329 -4.36741323 70.23572422 -3.8125 72.25 C-0.39593976 72.41677282 -0.39593976 72.41677282 3.1875 72.25 C5.78876568 69.64873432 5.47587247 67.7760998 5.50976562 64.2265625 C5.50654297 63.45054687 5.50332031 62.67453125 5.5 61.875 C5.51611328 61.10671875 5.53222656 60.3384375 5.54882812 59.546875 C5.55171868 56.20539183 5.47163811 53.83603484 4 50.80078125 C1.6859048 48.82083342 -0.14951167 48.40924385 -3.125 47.8125 C-8.39805857 46.50294252 -11.18494269 45.33100198 -14.8125 41.25 C-17.53917637 35.26174902 -18.28245921 30.34885868 -18.1875 23.8125 C-18.19910156 23.01779297 -18.21070313 22.22308594 -18.22265625 21.40429688 C-18.18925383 14.5623684 -17.29651347 7.73401347 -12.3125 2.75 C-8.13190735 0.24164441 -4.80562967 0.0614138 0 0 Z " fill="#D07EA3" transform="translate(362.8125,153.75)"/>
<path d="M0 0 C0.825 0.495 1.65 0.99 2.5 1.5 C2.5 2.16 2.5 2.82 2.5 3.5 C3.16 3.5 3.82 3.5 4.5 3.5 C6.20624078 8.61872233 5.99905691 12.9473785 4.375 18 C2.16097542 22.13284589 -0.29113168 26.05873453 -3.5 29.5 C-4.16 29.5 -4.82 29.5 -5.5 29.5 C-5.5 30.16 -5.5 30.82 -5.5 31.5 C-11.72275861 37.3785209 -20.64046282 45.5 -29.5 45.5 C-28.84 47.15 -28.18 48.8 -27.5 50.5 C-18.93864075 51.13417476 -11.95195853 48.85702323 -5.375 43.25 C-4.42625 42.3425 -3.4775 41.435 -2.5 40.5 C-1.18 41.16 0.14 41.82 1.5 42.5 C0.99287967 46.21888239 0.38391785 49.23454239 -1.5 52.5 C-2.16 52.5 -2.82 52.5 -3.5 52.5 C-3.5 53.16 -3.5 53.82 -3.5 54.5 C-11.78293173 60.63303597 -20.20216742 63.55958406 -30.5 62.5 C-37.07431786 60.900166 -39.90006676 56.89989986 -43.5 51.5 C-45.26627899 35.70617976 -38.85637451 24.22144166 -29.51953125 11.8828125 C-22.03469891 3.00858014 -11.93925228 -5.11682241 0 0 Z M-14.375 15.125 C-16.72226495 17.21726591 -16.72226495 17.21726591 -16.5 19.5 C-17.16 19.5 -17.82 19.5 -18.5 19.5 C-21.14 24.78 -23.78 30.06 -26.5 35.5 C-25.84 35.83 -25.18 36.16 -24.5 36.5 C-22.89400651 35.23147606 -21.29027425 33.960089 -19.6875 32.6875 C-18.79417969 31.97980469 -17.90085937 31.27210938 -16.98046875 30.54296875 C-14.08878226 28.17470522 -14.08878226 28.17470522 -11.5 25.5 C-11.5 24.84 -11.5 24.18 -11.5 23.5 C-10.84 23.5 -10.18 23.5 -9.5 23.5 C-8.46427104 21.75877451 -7.4468748 20.00663405 -6.4375 18.25 C-5.86902344 17.27546875 -5.30054688 16.3009375 -4.71484375 15.296875 C-3.27438513 12.63980725 -3.27438513 12.63980725 -3.81640625 10.140625 C-4.04199219 9.59921875 -4.26757812 9.0578125 -4.5 8.5 C-7.98028961 8.5 -11.98214732 12.94022147 -14.375 15.125 Z " fill="#9995F6" transform="translate(354.5,268.5)"/>
<path d="M0 0 C7.92 0 15.84 0 24 0 C25.72245608 3.44491215 25.13784976 7.41617609 25.12939453 11.20727539 C25.13114685 12.16181107 25.13289917 13.11634674 25.13470459 14.09980774 C25.13911826 17.26577555 25.13618703 20.43168784 25.1328125 23.59765625 C25.13348562 25.78958649 25.13445572 27.98151667 25.13571167 30.17344666 C25.13718794 34.77099314 25.13503614 39.36852022 25.13037109 43.96606445 C25.1246705 49.87360965 25.12795536 55.78110946 25.13394356 61.68865299 C25.13754821 66.21549322 25.13641108 70.74232259 25.13381577 75.26916313 C25.1331464 77.44817548 25.13397523 79.62718881 25.13629532 81.80620003 C25.13882064 84.8448665 25.13498311 87.88345827 25.12939453 90.92211914 C25.13141876 91.83175415 25.13344299 92.74138916 25.13552856 93.67858887 C25.11426301 99.88573699 25.11426301 99.88573699 24 101 C22.21928754 101.08726223 20.4351686 101.10699041 18.65234375 101.09765625 C17.57275391 101.09443359 16.49316406 101.09121094 15.38085938 101.08789062 C14.24455078 101.07951172 13.10824219 101.07113281 11.9375 101.0625 C10.79732422 101.05798828 9.65714844 101.05347656 8.48242188 101.04882812 C5.65489649 101.03699747 2.8274736 101.0205141 0 101 C0 99.02 0 97.04 0 95 C3.96 95 7.92 95 12 95 C12 65.96 12 36.92 12 7 C8.04 7 4.08 7 0 7 C0 4.69 0 2.38 0 0 Z " fill="#D284A7" transform="translate(388,155)"/>
<path d="M0 0 C9.9 0 19.8 0 30 0 C30 3.63 30 7.26 30 11 C24.39 11 18.78 11 13 11 C13 18.92 13 26.84 13 35 C18.28 35 23.56 35 29 35 C29 38.63 29 42.26 29 46 C23.72 46 18.44 46 13 46 C13 57.88 13 69.76 13 82 C8.71 82 4.42 82 0 82 C0 54.94 0 27.88 0 0 Z " fill="#D181A5" transform="translate(101,155)"/>
<path d="M0 0 C7.92 0 15.84 0 24 0 C24 2.31 24 4.62 24 7 C20.04 7 16.08 7 12 7 C12 36.04 12 65.08 12 95 C15.96 95 19.92 95 24 95 C24 96.98 24 98.96 24 101 C16.08 101 8.16 101 0 101 C0 67.67 0 34.34 0 0 Z " fill="#CD7CA1" transform="translate(231,155)"/>
<path d="M0 0 C4.29 0 8.58 0 13 0 C13 23.1 13 46.2 13 70 C18.61 70 24.22 70 30 70 C32.83823106 72.83823106 31 77.98613514 31 82 C20.77 82 10.54 82 0 82 C0 54.94 0 27.88 0 0 Z " fill="#D183A6" transform="translate(195,155)"/>
<path d="M0 0 C4.29 0 8.58 0 13 0 C13.13053293 9.22270692 13.26094736 18.44541549 13.39115143 27.66812706 C13.45161094 31.95030191 13.512123 36.23247601 13.57275391 40.51464844 C13.63123146 44.64487157 13.68957262 48.77509661 13.74781799 52.90532303 C13.77009696 54.48342584 13.79242561 56.06152796 13.81480408 57.63962936 C13.84606746 59.84487479 13.87715638 62.05012261 13.90820312 64.25537109 C13.92596802 65.51223724 13.94373291 66.76910339 13.96203613 68.0640564 C14.02489568 72.92531295 14.02489568 72.92531295 13 76 C12.01 76.495 12.01 76.495 11 77 C11 77.66 11 78.32 11 79 C11.66 79.33 12.32 79.66 13 80 C13 80.66 13 81.32 13 82 C9.17163599 81.73290484 7.29058777 81.23114937 4.25 78.8125 C0.26747108 73.83433885 -0.24961776 69.14411948 -0.22705078 62.89306641 C-0.22748886 61.86762726 -0.22748886 61.86762726 -0.22793579 60.82147217 C-0.2265521 58.58136923 -0.21103684 56.34160671 -0.1953125 54.1015625 C-0.19157894 52.54072247 -0.18873359 50.97988008 -0.18673706 49.41903687 C-0.17912758 45.3255152 -0.15950237 41.2321371 -0.1373291 37.13867188 C-0.11681263 32.95574892 -0.10772297 28.7728026 -0.09765625 24.58984375 C-0.07625373 16.39315618 -0.0410937 8.19661253 0 0 Z " fill="#D384A7" transform="translate(261,155)"/>
<path d="M0 0 C3.96 0 7.92 0 12 0 C12 27.06 12 54.12 12 82 C8.04 82 4.08 82 0 82 C0 54.94 0 27.88 0 0 Z " fill="#D0769F" transform="translate(175,155)"/>
<path d="M0 0 C3.94766915 11.35670037 -2.67217194 29.24213332 -7.2265625 39.859375 C-8.36092241 42.04027341 -9.56378304 44.00741071 -11 46 C-11.43957031 46.61617188 -11.87914062 47.23234375 -12.33203125 47.8671875 C-14.51534274 50.47753788 -15.95327601 51.84041749 -19.3828125 52.36328125 C-21.62337649 52.37381682 -23.77667737 52.26679872 -26 52 C-26 51.34 -26 50.68 -26 50 C-23.36 50 -20.72 50 -18 50 C-18.66 47.36 -19.32 44.72 -20 42 C-20.66 42 -21.32 42 -22 42 C-21 40 -21 40 -19.125 38.3125 C-14.32596473 33.09002044 -12.89484135 25.67897979 -11 19 C-10.67 20.32 -10.34 21.64 -10 23 C-9.01 22.67 -8.02 22.34 -7 22 C-6.34 22.33 -5.68 22.66 -5 23 C-2.18447274 16.21256822 -1.6310281 10.31110994 -2 3 C-1.34 3 -0.68 3 0 3 C0 2.01 0 1.02 0 0 Z " fill="#9591F6" transform="translate(303,301)"/>
<path d="M0 0 C0.99 0.33 1.98 0.66 3 1 C2.67 27.07 2.34 53.14 2 80 C4.64 80 7.28 80 10 80 C10.33 53.6 10.66 27.2 11 0 C11.33 0 11.66 0 12 0 C12 27.06 12 54.12 12 82 C8.04 82 4.08 82 0 82 C0 54.94 0 27.88 0 0 Z " fill="#C588A3" transform="translate(175,155)"/>
<path d="M0 0 C0.495 1.98 0.495 1.98 1 4 C0.360625 4.268125 -0.27875 4.53625 -0.9375 4.8125 C-3.33131686 5.88667752 -3.33131686 5.88667752 -4 9 C-5.62332967 10.38576923 -7.28724465 11.72641268 -9 13 C-8.34 13.66 -7.68 14.32 -7 15 C-6.34 14.34 -5.68 13.68 -5 13 C-5.34069235 16.15140423 -5.58076841 17.60781561 -7.9375 19.8125 C-10 21 -10 21 -12 21 C-12 21.66 -12 22.32 -12 23 C-13.38782485 23.8466034 -14.78569397 24.67675339 -16.1875 25.5 C-16.96480469 25.9640625 -17.74210937 26.428125 -18.54296875 26.90625 C-21.24103386 28.10729647 -23.0806982 28.20741043 -26 28 C-26 27.01 -26 26.02 -26 25 C-25.34 25 -24.68 25 -24 25 C-24.66 23.02 -25.32 21.04 -26 19 C-28.64 19 -31.28 19 -34 19 C-34 18.67 -34 18.34 -34 18 C-28.6787385 16.91681831 -23.36513131 15.847126 -18 15 C-18 14.34 -18 13.68 -18 13 C-17.14148438 12.61199219 -16.28296875 12.22398437 -15.3984375 11.82421875 C-11.70103268 9.83951984 -8.78048539 7.54335834 -5.625 4.8125 C-5.07972656 4.34908203 -4.53445312 3.88566406 -3.97265625 3.40820312 C-2.64382653 2.27753222 -1.3212472 1.13952226 0 0 Z " fill="#9E9AF4" transform="translate(212,304)"/>
<path d="M0 0 C2.97 0 5.94 0 9 0 C9.03738281 1.09699219 9.07476562 2.19398438 9.11328125 3.32421875 C9.17896653 4.77867857 9.24541299 6.23310416 9.3125 7.6875 C9.33505859 8.40873047 9.35761719 9.12996094 9.38085938 9.87304688 C9.60544899 14.34442197 10.15423098 17.35660451 13 21 C13.99 21.66 14.98 22.32 16 23 C13.36 23.66 10.72 24.32 8 25 C8 24.01 8 23.02 8 22 C7.01 21.34 6.02 20.68 5 20 C4.67 19.67 4.34 19.34 4 19 C3.67 19.99 3.34 20.98 3 22 C0 20 0 20 -0.6875 16.875 C-1.15068144 11.1315502 -1.41192689 5.64770756 0 0 Z " fill="#D07AA1" transform="translate(346,207)"/>
<path d="M0 0 C0.66 0.33 1.32 0.66 2 1 C2.35412344 2.32796291 2.68521554 3.66216607 3 5 C3.99 6.485 3.99 6.485 5 8 C5.1953125 10.26171875 5.1953125 10.26171875 5.125 12.6875 C5.10695313 13.49574219 5.08890625 14.30398437 5.0703125 15.13671875 C5.03550781 16.05904297 5.03550781 16.05904297 5 17 C4.360625 17.28875 3.72125 17.5775 3.0625 17.875 C0.84793921 18.82823451 0.84793921 18.82823451 0 21 C-1.32 21 -2.64 21 -4 21 C-6.44576827 17.33134759 -6.23607254 15.32799657 -6 11 C-5.67 10.34 -5.34 9.68 -5 9 C-5.66 9 -6.32 9 -7 9 C-6.67 8.34 -6.34 7.68 -6 7 C-5.731875 6.360625 -5.46375 5.72125 -5.1875 5.0625 C-3.80666766 2.66421225 -2.28308134 1.52205422 0 0 Z " fill="#CE79A0" transform="translate(330,205)"/>
<path d="M0 0 C0.268125 0.61875 0.53625 1.2375 0.8125 1.875 C1.95556848 4.2995233 1.95556848 4.2995233 5 6 C6.65549531 6.38499891 8.3222433 6.72793135 10 7 C8.68 7.33 7.36 7.66 6 8 C6 8.66 6 9.32 6 10 C5.360625 10.226875 4.72125 10.45375 4.0625 10.6875 C3.381875 11.120625 2.70125 11.55375 2 12 C1.67 13.65 1.34 15.3 1 17 C7.6 17.33 14.2 17.66 21 18 C15.15563537 20.92218231 9.54621337 20.97170253 3.234375 19.2421875 C-1.43904191 17.46516969 -5.3062211 15.44752697 -9 12 C-8.67 10.02 -8.34 8.04 -8 6 C-5.03 6.495 -5.03 6.495 -2 7 C-2 5.68 -2 4.36 -2 3 C-1.34 3 -0.68 3 0 3 C0 2.01 0 1.02 0 0 Z " fill="#A09DF4" transform="translate(164,315)"/>
<path d="M0 0 C0 23.1 0 46.2 0 70 C5.61 70 11.22 70 17 70 C17 70.33 17 70.66 17 71 C11.06 71 5.12 71 -1 71 C-1.06058594 68.174375 -1.12117187 65.34875 -1.18359375 62.4375 C-1.60947087 42.94922059 -2.04374581 23.470963 -3 4 C-4.98643374 3.59356166 -6.98973965 3.26450794 -9 3 C-10.89958081 4.31318262 -10.89958081 4.31318262 -12 6 C-12 4.35 -12 2.7 -12 1 C-7.77370786 -0.40876405 -4.89096249 0 0 0 Z " fill="#E6C2D2" transform="translate(208,155)"/>
<path d="M0 0 C2.88461151 1.29310171 5.12852073 2.41557624 7 5 C7.8125 8.5 7.8125 8.5 8 12 C7.01 13.485 7.01 13.485 6 15 C4.68 15 3.36 15 2 15 C1.34 13.02 0.68 11.04 0 9 C-4.92127034 8.83317728 -8.50343896 8.75171948 -13 11 C-12.67 9.68 -12.34 8.36 -12 7 C-10.01432292 6.51171875 -8.02864583 6.0234375 -6.04296875 5.53515625 C-4.34316798 5.08989295 -2.66698046 4.55566015 -1 4 C-0.26676204 1.98491642 -0.26676204 1.98491642 0 0 Z " fill="#A09DF1" transform="translate(261,269)"/>
<path d="M0 0 C-0.2165625 0.8353125 -0.2165625 0.8353125 -0.4375 1.6875 C-1.40257213 5.65501875 -2.12180095 9.2794432 -2 13.375 C-2 17 -2 17 -4 20 C-5 19 -5 19 -5.09765625 16.49609375 C-5.08605469 15.48675781 -5.07445312 14.47742188 -5.0625 13.4375 C-5.05347656 12.42558594 -5.04445312 11.41367187 -5.03515625 10.37109375 C-5.02355469 9.58863281 -5.01195312 8.80617188 -5 8 C-5.33 8.33 -5.66 8.66 -6 9 C-7 10 -8 11 -9 12 C-9 9.69 -9 7.38 -9 5 C-9.66 5 -10.32 5 -11 5 C-11 5.99 -11 6.98 -11 8 C-12.375 9.6875 -12.375 9.6875 -14 11 C-14.66 11 -15.32 11 -16 11 C-15.46799297 6.47794021 -13.87701732 3.5163545 -11 0 C-7.18249873 -1.5069084 -3.9525103 -0.8272696 0 0 Z M-8 1 C-7 3 -7 3 -7 3 Z " fill="#A3A0F3" transform="translate(253,300)"/>
<path d="M0 0 C1.32 0.66 2.64 1.32 4 2 C3.49287967 5.71888239 2.88391785 8.73454239 1 12 C0.34 12 -0.32 12 -1 12 C-1 12.66 -1 13.32 -1 14 C-2.98 14.99 -2.98 14.99 -5 16 C-4.67 13.69 -4.34 11.38 -4 9 C-6.31 9 -8.62 9 -11 9 C-11.33 9.99 -11.66 10.98 -12 12 C-13.65 11.67 -15.3 11.34 -17 11 C-16.44441406 10.73058594 -15.88882812 10.46117187 -15.31640625 10.18359375 C-12.79786747 8.89671812 -10.37043877 7.50464923 -7.9375 6.0625 C-7.08027344 5.55847656 -6.22304688 5.05445313 -5.33984375 4.53515625 C-3.26097295 3.17122265 -1.66626426 1.8301591 0 0 Z " fill="#A4A1F1" transform="translate(352,309)"/>
<path d="M0 0 C1.43322695 3.9439153 0.74427522 7.70004512 0.1875 11.75 C0.0942041 12.46285156 0.0009082 13.17570312 -0.09521484 13.91015625 C-0.75042679 18.71284883 -1.6411273 23.34100787 -3 28 C-4.875 28.625 -4.875 28.625 -7 29 C-7.66 28.34 -8.32 27.68 -9 27 C-10.65 28.32 -12.3 29.64 -14 31 C-13.01 27.04 -12.02 23.08 -11 19 C-10.67 20.32 -10.34 21.64 -10 23 C-9.01 22.67 -8.02 22.34 -7 22 C-6.34 22.33 -5.68 22.66 -5 23 C-2.18447274 16.21256822 -1.6310281 10.31110994 -2 3 C-1.34 3 -0.68 3 0 3 C0 2.01 0 1.02 0 0 Z " fill="#A19EF6" transform="translate(303,301)"/>
<path d="M0 0 C1.32 0.33 2.64 0.66 4 1 C3.01 1 2.02 1 1 1 C1.01474869 1.85999603 1.02949738 2.71999207 1.04469299 3.60604858 C1.18257849 11.699229 1.31555073 19.79247187 1.4429636 27.8858242 C1.50864673 32.04698054 1.57624901 36.20808746 1.64819336 40.36914062 C1.71751581 44.38259321 1.78185441 48.39609723 1.84269524 52.40968704 C1.86682501 53.94316142 1.89276971 55.47660833 1.92053413 57.01002121 C1.95902883 59.15295869 1.9911479 61.2959019 2.02172852 63.43896484 C2.04171402 64.66030121 2.06169952 65.88163757 2.08229065 67.13998413 C2 70 2 70 1 72 C-0.32 71.67 -1.64 71.34 -3 71 C-2.01 70.01 -2.01 70.01 -1 69 C-0.66697064 66.00490938 -0.66697064 66.00490938 -0.68115234 62.43896484 C-0.67110672 61.76567642 -0.6610611 61.092388 -0.65071106 60.3986969 C-0.61977818 58.16945259 -0.60281632 55.94032891 -0.5859375 53.7109375 C-0.56723393 52.16678828 -0.54766113 50.62264935 -0.5272522 49.07852173 C-0.4758391 45.01137355 -0.43626273 40.9441922 -0.39910889 36.87689209 C-0.35912657 32.7277398 -0.30800798 28.57872658 -0.2578125 24.4296875 C-0.16094463 16.28655319 -0.07657486 8.14335029 0 0 Z " fill="#C38FA6" transform="translate(285,155)"/>
<path d="M0 0 C0.33 0 0.66 0 1 0 C1.08706892 3.27066566 1.14041241 6.54103365 1.1875 9.8125 C1.22520508 11.2056543 1.22520508 11.2056543 1.26367188 12.62695312 C1.27817383 13.9659668 1.27817383 13.9659668 1.29296875 15.33203125 C1.31653442 16.56530151 1.31653442 16.56530151 1.34057617 17.82348633 C0.91916517 20.51658964 -0.01880233 21.20924789 -2 23 C-2.33 23.99 -2.66 24.98 -3 26 C-3.99 26 -4.98 26 -6 26 C-6 26.66 -6 27.32 -6 28 C-7.32 28.33 -8.64 28.66 -10 29 C-10.41713515 27.56853622 -10.8080497 26.12941114 -11.1875 24.6875 C-11.51814453 23.48673828 -11.51814453 23.48673828 -11.85546875 22.26171875 C-12 20 -12 20 -10.67578125 18.20703125 C-9 17 -9 17 -7 17 C-7.33 18.65 -7.66 20.3 -8 22 C-7.13375 21.5359375 -7.13375 21.5359375 -6.25 21.0625 C-4 20 -4 20 0 19 C0 12.73 0 6.46 0 0 Z " fill="#CD779D" transform="translate(379,207)"/>
<path d="M0 0 C0.70125 0.2475 1.4025 0.495 2.125 0.75 C0.5963021 4.18957029 -1.51310168 6.83699207 -3.875 9.75 C-3.875 10.08 -3.875 10.41 -3.875 10.75 C-6.845 10.75 -9.815 10.75 -12.875 10.75 C-12.215 9.43 -11.555 8.11 -10.875 6.75 C-10.215 6.75 -9.555 6.75 -8.875 6.75 C-8.875 5.76 -8.875 4.77 -8.875 3.75 C-3.98222101 -0.34628009 -3.98222101 -0.34628009 0 0 Z " fill="#928EF8" transform="translate(213.875,270.25)"/>
<path d="M0 0 C0.66 0 1.32 0 2 0 C2 4.95 2 9.9 2 15 C2.66 15 3.32 15 4 15 C4 15.99 4 16.98 4 18 C6.64 18 9.28 18 12 18 C12 12.72 12 7.44 12 2 C12.33 2 12.66 2 13 2 C13.66 7.94 14.32 13.88 15 20 C4.94140625 20.09765625 4.94140625 20.09765625 2 20 C0.45049732 18.45049732 0.78344807 16.90009406 0.68359375 14.74609375 C0.64169922 13.89208984 0.59980469 13.03808594 0.55664062 12.15820312 C0.51732422 11.26037109 0.47800781 10.36253906 0.4375 9.4375 C0.39431641 8.53580078 0.35113281 7.63410156 0.30664062 6.70507812 C0.20021858 4.47021515 0.09820012 2.23523692 0 0 Z " fill="#D8A5BC" transform="translate(157,217)"/>
<path d="M0 0 C8.26485149 -0.62376238 8.26485149 -0.62376238 11.0625 1.75 C12 4 12 4 12 8 C8.7 8 5.4 8 2 8 C0 2.25 0 2.25 0 0 Z " fill="#CE779D" transform="translate(328,228)"/>
<path d="M0 0 C1.97986082 0.11347619 3.95891598 0.2410935 5.9375 0.375 C7.03964844 0.44460938 8.14179688 0.51421875 9.27734375 0.5859375 C10.62505859 0.79089844 10.62505859 0.79089844 12 1 C12.33 1.66 12.66 2.32 13 3 C12.34 3 11.68 3 11 3 C11 3.66 11 4.32 11 5 C8.6870518 7.3129482 7.52095125 7.49580975 4.375 8.125 C3.55773437 8.29257812 2.74046875 8.46015625 1.8984375 8.6328125 C0.95871094 8.81457031 0.95871094 8.81457031 0 9 C0.185625 8.2575 0.37125 7.515 0.5625 6.75 C0.9986917 4.00822361 0.75202442 2.60701799 0 0 Z " fill="#928EF9" transform="translate(249,268)"/>
<path d="M0 0 C0.66 0 1.32 0 2 0 C2 6.27 2 12.54 2 19 C-1.96 19 -5.92 19 -10 19 C-10 13.06 -10 7.12 -10 1 C-9.67 1 -9.34 1 -9 1 C-8.34 5.95 -7.68 10.9 -7 16 C-4.36 16.66 -1.72 17.32 1 18 C0.67 12.06 0.34 6.12 0 0 Z " fill="#C58CA5" transform="translate(379,166)"/>
<path d="M0 0 C0.66 0.33 1.32 0.66 2 1 C2.72886734 3.7696959 3 6.12862585 3 9 C0.375 10.82421875 0.375 10.82421875 -3 12.6875 C-4.11375 13.31011719 -5.2275 13.93273437 -6.375 14.57421875 C-7.24125 15.04472656 -8.1075 15.51523437 -9 16 C-9.66 15.01 -10.32 14.02 -11 13 C-10 12 -10 12 -7.4375 11.9375 C-6.633125 11.958125 -5.82875 11.97875 -5 12 C-5 11.34 -5 10.68 -5 10 C-4.01 10 -3.02 10 -2 10 C-2 9.34 -2 8.68 -2 8 C-1.01 8 -0.02 8 1 8 C-1.05233685 5.7522025 -2.00667261 4.9977758 -5 4 C-3.35 2.68 -1.7 1.36 0 0 Z " fill="#A4A2F1" transform="translate(339,297)"/>
<path d="M0 0 C2.125 0.9375 2.125 0.9375 4 2 C4.4375 4.1875 4.4375 4.1875 4 7 C1.86004673 8.98441782 -0.50175965 10.5023304 -3 12 C-3 4 -3 4 -2 1 C-1.34 0.67 -0.68 0.34 0 0 Z " fill="#A8A3F3" transform="translate(317,250)"/>
<path d="M0 0 C0.66 0 1.32 0 2 0 C2 3 2 3 0 5.1875 C-0.66 5.785625 -1.32 6.38375 -2 7 C3.73866286 6.75873003 3.73866286 6.75873003 8.5 3.9375 C8.995 3.298125 9.49 2.65875 10 2 C10.99 2.33 11.98 2.66 13 3 C12 6 12 6 10.3203125 7.17578125 C7.40073443 8.21287043 4.96837657 8.22930239 1.875 8.1875 C0.82054687 8.18105469 -0.23390625 8.17460937 -1.3203125 8.16796875 C-4 8 -4 8 -6 7 C-6 6.34 -6 5.68 -6 5 C-4.68 4.67 -3.36 4.34 -2 4 C-2 3.34 -2 2.68 -2 2 C-1.34 2 -0.68 2 0 2 C0 1.34 0 0.68 0 0 Z " fill="#ABA7F0" transform="translate(203,274)"/>
<path d="M0 0 C3.63 0 7.26 0 11 0 C11 5.61 11 11.22 11 17 C10.34 17.33 9.68 17.66 9 18 C9 12.72 9 7.44 9 2 C6.03 2 3.06 2 0 2 C0 1.34 0 0.68 0 0 Z " fill="#D198B1" transform="translate(346,205)"/>
<path d="M0 0 C3.3 0 6.6 0 10 0 C10 1.98 10 3.96 10 6 C7.36 6 4.72 6 2 6 C2 5.34 2 4.68 2 4 C1.34 4 0.68 4 0 4 C0 3.34 0 2.68 0 2 C1.299375 2.020625 2.59875 2.04125 3.9375 2.0625 C5.29165633 2.08399454 6.64756083 2.07148199 8 2 C8.33 1.67 8.66 1.34 9 1 C6.03 1 3.06 1 0 1 C0 0.67 0 0.34 0 0 Z " fill="#D893B2" transform="translate(245,250)"/>
<path d="M0 0 C-4.29 -0.33 -8.58 -0.66 -13 -1 C-13 -0.34 -13 0.32 -13 1 C-14.2065625 0.9690625 -14.2065625 0.9690625 -15.4375 0.9375 C-17.93354885 0.70366379 -17.93354885 0.70366379 -19 2 C-20.99958364 2.04080783 -23.00045254 2.04254356 -25 2 C-17.93676931 -4.47462813 -8.07430226 -4.03715113 0 0 Z " fill="#B4B0EF" transform="translate(215,243)"/>
<path d="M0 0 C0.33 0.66 0.66 1.32 1 2 C-0.65 2.33 -2.3 2.66 -4 3 C-5.36235344 5.94593457 -5.36235344 5.94593457 -3.875 8.4375 C-3.58625 9.283125 -3.2975 10.12875 -3 11 C-4.375 13.3125 -4.375 13.3125 -6 15 C-6.66 14.67 -7.32 14.34 -8 14 C-7.34 12.68 -6.68 11.36 -6 10 C-6.66 9.34 -7.32 8.68 -8 8 C-8.125 4.375 -8.125 4.375 -8 1 C-5.36 0.67 -2.72 0.34 0 0 Z " fill="#A6A2ED" transform="translate(286,282)"/>
<path d="M0 0 C5.44693314 -0.09688221 10.63904667 -0.12862175 16 1 C16 1.33 16 1.66 16 2 C11.1666528 2.08333357 6.76307437 1.95261487 2 1 C2.33 1.99 2.66 2.98 3 4 C5.97 4 8.94 4 12 4 C12.33 4.66 12.66 5.32 13 6 C8.71 6 4.42 6 0 6 C0 4.02 0 2.04 0 0 Z " fill="#BF7C99" transform="translate(388,155)"/>
<path d="M0 0 C1.28226945 3.5609521 0.71916503 5.35111081 -0.8125 8.75 C-2.69431248 13.1387253 -3.9651452 17.34315342 -5 22 C-5.33 22 -5.66 22 -6 22 C-6.66268329 14.87615459 -4.25388064 8.69120815 -2 2 C-1.34 2 -0.68 2 0 2 C0 1.34 0 0.68 0 0 Z " fill="#ABA9EE" transform="translate(289,304)"/>
<path d="M0 0 C0.33 1.32 0.66 2.64 1 4 C0.360625 4.268125 -0.27875 4.53625 -0.9375 4.8125 C-3.33131686 5.88667752 -3.33131686 5.88667752 -4 9 C-6.5625 10.6875 -6.5625 10.6875 -9 12 C-9.99 11.34 -10.98 10.68 -12 10 C-8.04 6.7 -4.08 3.4 0 0 Z " fill="#ABA8F1" transform="translate(212,304)"/>
<path d="M0 0 C1.32 0 2.64 0 4 0 C4.33 0.66 4.66 1.32 5 2 C7.97 2 10.94 2 14 2 C13.67 2.99 13.34 3.98 13 5 C10.07406105 5.85637238 7.91825712 6.38673104 5.04296875 5.17578125 C3.32488268 4.17852152 1.65798613 3.09427085 0 2 C0 1.34 0 0.68 0 0 Z " fill="#A9A7EC" transform="translate(218,326)"/>
<path d="M0 0 C0.33 0 0.66 0 1 0 C1.12109311 7.07721931 0.85373239 13.97195301 0 21 C-0.66 21 -1.32 21 -2 21 C-2 16.38 -2 11.76 -2 7 C-1.34 7 -0.68 7 0 7 C0 4.69 0 2.38 0 0 Z " fill="#D59AB6" transform="translate(149,177)"/>
<path d="M0 0 C1.47391462 3.99617696 0.70092392 7.83497702 0.125 11.9375 C0.03347656 12.64068359 -0.05804688 13.34386719 -0.15234375 14.06835938 C-0.64132891 17.74263519 -1.21992704 21.37620652 -2 25 C-2.33 24.01 -2.66 23.02 -3 22 C-3.66 21.67 -4.32 21.34 -5 21 C-4.505 20.071875 -4.01 19.14375 -3.5 18.1875 C-1.340555 13.26031562 -1.74234354 8.27718611 -2 3 C-1.34 3 -0.68 3 0 3 C0 2.01 0 1.02 0 0 Z " fill="#AFAEEB" transform="translate(303,301)"/>
<path d="M0 0 C0.33 0 0.66 0 1 0 C1.05397335 2.4377963 1.09365616 4.87439685 1.125 7.3125 C1.14175781 8.00279297 1.15851563 8.69308594 1.17578125 9.40429688 C1.21217794 13.17135396 1.14378864 14.78431704 -1 18 C-2.70336001 16.29663999 -2.17182498 14.13553774 -2.1875 11.8125 C-2.15939308 7.4952776 -1.73473512 4.01157497 0 0 Z " fill="#ACAAEF" transform="translate(250,302)"/>
<path d="M0 0 C0.66 0.33 1.32 0.66 2 1 C2.23268915 7.28260706 1.40454548 12.88019467 0 19 C-0.66 19 -1.32 19 -2 19 C-1.85870713 16.58299013 -1.71213513 14.16649571 -1.5625 11.75 C-1.52318359 11.06808594 -1.48386719 10.38617188 -1.44335938 9.68359375 C-1.23333528 6.35551959 -0.98065998 3.19744598 0 0 Z " fill="#D191AD" transform="translate(137,194)"/>
<path d="M0 0 C0 0.99 0 1.98 0 3 C-1.65 3.66 -3.3 4.32 -5 5 C-5 5.66 -5 6.32 -5 7 C-5.66 7 -6.32 7 -7 7 C-7.33 7.66 -7.66 8.32 -8 9 C-8.99 9 -9.98 9 -11 9 C-11 8.34 -11 7.68 -11 7 C-10.34 7 -9.68 7 -9 7 C-9 6.34 -9 5.68 -9 5 C-8.34 5 -7.68 5 -7 5 C-7 4.34 -7 3.68 -7 3 C-2.61538462 0 -2.61538462 0 0 0 Z " fill="#ABA8F0" transform="translate(244,269)"/>
<path d="M0 0 C0.66 0.33 1.32 0.66 2 1 C1.67 2.65 1.34 4.3 1 6 C-2.96 6 -6.92 6 -11 6 C-11 4.35 -11 2.7 -11 1 C-10.01 2.485 -10.01 2.485 -9 4 C-6.79274927 4.36362818 -6.79274927 4.36362818 -4.375 4.1875 C-3.55773437 4.16042969 -2.74046875 4.13335937 -1.8984375 4.10546875 C-1.27195313 4.07066406 -0.64546875 4.03585938 0 4 C0 2.68 0 1.36 0 0 Z " fill="#DAA9BF" transform="translate(143,231)"/>
<path d="M0 0 C0.66 0 1.32 0 2 0 C1.34938905 1.67299959 0.67966676 3.33859237 0 5 C-0.2475 5.680625 -0.495 6.36125 -0.75 7.0625 C-2.58739602 9.91046383 -5.14303527 11.26097799 -8 13 C-8.66 12.67 -9.32 12.34 -10 12 C-9.04882866 10.8274869 -8.08882991 9.66212985 -7.125 8.5 C-6.32449219 7.52546875 -6.32449219 7.52546875 -5.5078125 6.53125 C-5.01023437 6.0259375 -4.51265625 5.520625 -4 5 C-3.34 5 -2.68 5 -2 5 C-1.34 3.35 -0.68 1.7 0 0 Z " fill="#ADABF0" transform="translate(276,298)"/>
<path d="M0 0 C0.66 0 1.32 0 2 0 C2.66 2.64 3.32 5.28 4 8 C7.3 8.33 10.6 8.66 14 9 C14.33 8.34 14.66 7.68 15 7 C15 7.99 15 8.98 15 10 C10.71 10 6.42 10 2 10 C0 4 0 4 0 0 Z " fill="#E0B1C7" transform="translate(326,227)"/>
<path d="M0 0 C3.63 0 7.26 0 11 0 C11 0.33 11 0.66 11 1 C9.329375 1.12375 9.329375 1.12375 7.625 1.25 C4.00974199 1.56294972 4.00974199 1.56294972 2.8125 3.71875 C1.90143846 6.27673047 1.5885222 8.54538544 1.375 11.25 C1.30023438 12.14203125 1.22546875 13.0340625 1.1484375 13.953125 C1.09945313 14.62859375 1.05046875 15.3040625 1 16 C0.67 16 0.34 16 0 16 C0 10.72 0 5.44 0 0 Z " fill="#CF96B5" transform="translate(356,164)"/>
<path d="M0 0 C2.31 0 4.62 0 7 0 C7 1.98 7 3.96 7 6 C3.37 6 -0.26 6 -4 6 C-4 5.67 -4 5.34 -4 5 C-0.92382812 4.70703125 -0.92382812 4.70703125 2.15234375 4.4140625 C2.76207031 4.27742187 3.37179688 4.14078125 4 4 C4.33 3.34 4.66 2.68 5 2 C3.35 2.33 1.7 2.66 0 3 C0 2.01 0 1.02 0 0 Z " fill="#C07B99" transform="translate(247,155)"/>
<path d="M0 0 C4.62 0 9.24 0 14 0 C14.33 0.66 14.66 1.32 15 2 C6.585 2.495 6.585 2.495 -2 3 C-1.34 2.67 -0.68 2.34 0 2 C0 1.34 0 0.68 0 0 Z " fill="#918CE8" transform="translate(170,323)"/>
<path d="M0 0 C-3.34625502 2.23083668 -3.76618219 2.16613388 -7.5 1.5625 C-10.65380677 1.06314726 -11.87980059 0.95993353 -15 2 C-15.66 1.34 -16.32 0.68 -17 0 C-11.14880182 -2.83694457 -5.85119818 -2.83694457 0 0 Z " fill="#A7A3EE" transform="translate(261,268)"/>
<path d="M0 0 C0.33 0.66 0.66 1.32 1 2 C1.99 2.33 2.98 2.66 4 3 C3.0625 5 3.0625 5 1 7 C-2.02534949 7.36475845 -4.96663814 7.22893297 -8 7 C-8 6.34 -8 5.68 -8 5 C-5.36 5 -2.72 5 0 5 C0 3.35 0 1.7 0 0 Z " fill="#ABA8EE" transform="translate(285,346)"/>
<path d="M0 0 C2.99324263 1.0975223 3.84610901 1.67682892 5.25 4.625 C5.4975 5.40875 5.745 6.1925 6 7 C3 7 3 7 0 5 C-0.33 4.34 -0.66 3.68 -1 3 C-1.99 3 -2.98 3 -4 3 C-2.68 2.01 -1.36 1.02 0 0 Z " fill="#D88BAD" transform="translate(353,155)"/>
<path d="M0 0 C0.66 0.33 1.32 0.66 2 1 C-1.42105263 10.21052632 -1.42105263 10.21052632 -5 12 C-5.1875 9.625 -5.1875 9.625 -5 7 C-4.01 6.34 -3.02 5.68 -2 5 C-0.79549696 2.44816596 -0.79549696 2.44816596 0 0 Z " fill="#ACA8ED" transform="translate(294,337)"/>
<path d="M0 0 C1.5625 1.5 1.5625 1.5 3 4 C2.96823234 6.77437543 2.50364148 9.25286467 2 12 C1.71125 11.360625 1.4225 10.72125 1.125 10.0625 C0.17176549 7.84793921 0.17176549 7.84793921 -2 7 C-2.33 7.66 -2.66 8.32 -3 9 C-3 8.01 -3 7.02 -3 6 C-2.01 6 -1.02 6 0 6 C-0.66 5.34 -1.32 4.68 -2 4 C-2 3.01 -2 2.02 -2 1 C-1.34 0.67 -0.68 0.34 0 0 Z " fill="#A5A4F5" transform="translate(213,309)"/>
<path d="M0 0 C1.98 0.66 3.96 1.32 6 2 C6 3.32 6 4.64 6 6 C5.360625 5.814375 4.72125 5.62875 4.0625 5.4375 C3.0415625 5.2209375 3.0415625 5.2209375 2 5 C1.67 5.33 1.34 5.66 1 6 C0.01 5.67 -0.98 5.34 -2 5 C-1.34 3.35 -0.68 1.7 0 0 Z " fill="#8F8DF5" transform="translate(323,307)"/>
<path d="M0 0 C3.63 0 7.26 0 11 0 C11 0.33 11 0.66 11 1 C8.36 1 5.72 1 3 1 C3.33 2.32 3.66 3.64 4 5 C2.68 5.33 1.36 5.66 0 6 C0 4.02 0 2.04 0 0 Z " fill="#D59BB5" transform="translate(388,250)"/>
<path d="M0 0 C0.33 0.66 0.66 1.32 1 2 C-0.64379791 6.67184669 -2.18479582 9.71103088 -6 13 C-6.33 11.68 -6.66 10.36 -7 9 C-6.01 9 -5.02 9 -4 9 C-3.896875 8.2575 -3.79375 7.515 -3.6875 6.75 C-2.95746496 3.82985982 -1.93210602 2.26812446 0 0 Z " fill="#B3B1EF" transform="translate(359,281)"/>
<path d="M0 0 C0.33 0.66 0.66 1.32 1 2 C-0.375 4 -0.375 4 -2 6 C-2.66 6 -3.32 6 -4 6 C-4.66 7.65 -5.32 9.3 -6 11 C-6.99 10.67 -7.98 10.34 -9 10 C-7.73460242 7.46920483 -6.02890729 5.97093851 -4 4 C-3.2575 3.2575 -2.515 2.515 -1.75 1.75 C-1.1725 1.1725 -0.595 0.595 0 0 Z " fill="#B0ADF3" transform="translate(290,333)"/>
<path d="M0 0 C0.66 0 1.32 0 2 0 C1.67 1.65 1.34 3.3 1 5 C1.99 5.33 2.98 5.66 4 6 C2.25 6.75 2.25 6.75 0 7 C-2.25 5.1875 -2.25 5.1875 -4 3 C-4 2.34 -4 1.68 -4 1 C-2.68 1.33 -1.36 1.66 0 2 C0 1.34 0 0.68 0 0 Z " fill="#ACA9EF" transform="translate(318,322)"/>
<path d="M0 0 C1.32 0.66 2.64 1.32 4 2 C1.69 4.31 -0.62 6.62 -3 9 C-3.33 8.01 -3.66 7.02 -4 6 C-3.34 6 -2.68 6 -2 6 C-2.33 5.01 -2.66 4.02 -3 3 C-2.01 2.67 -1.02 2.34 0 2 C0 1.34 0 0.68 0 0 Z " fill="#A4A1F1" transform="translate(189,257)"/>
<path d="M0 0 C0.33 0.99 0.66 1.98 1 3 C1.66 3.33 2.32 3.66 3 4 C1.875 6.5 1.875 6.5 0 9 C-3.1875 9.3125 -3.1875 9.3125 -6 9 C-5 7 -5 7 -3 6.1875 C-0.71525923 5.14044802 -0.71525923 5.14044802 -0.25 2.375 C-0.1675 1.59125 -0.085 0.8075 0 0 Z " fill="#D293AD" transform="translate(327,189)"/>
<path d="M0 0 C0.33 0.66 0.66 1.32 1 2 C-0.88935711 6.09360707 -2.96616255 8.03479714 -7 10 C-7.66 10 -8.32 10 -9 10 C-9 9.34 -9 8.68 -9 8 C-8.01 8 -7.02 8 -6 8 C-6 7.34 -6 6.68 -6 6 C-5.01 6 -4.02 6 -3 6 C-2.814375 5.071875 -2.814375 5.071875 -2.625 4.125 C-2 2 -2 2 0 0 Z " fill="#D19BB3" transform="translate(379,227)"/>
<path d="M0 0 C1 2 1 2 0.375 4.5 C-1 7 -1 7 -6 9 C-4.02 6.03 -2.04 3.06 0 0 Z " fill="#ABA4EE" transform="translate(228,282)"/>
<path d="M0 0 C0.88492145 2.47778006 1.11637742 3.66056586 0.25 6.1875 C-1 8 -1 8 -4 9 C-2.94124926 5.59687262 -1.99097846 2.98646769 0 0 Z " fill="#ADA9F2" transform="translate(293,269)"/>
<path d="M0 0 C1.134375 0.020625 2.26875 0.04125 3.4375 0.0625 C3.7675 0.7225 4.0975 1.3825 4.4375 2.0625 C2.4575 2.7225 0.4775 3.3825 -1.5625 4.0625 C-2.5525 3.0725 -3.5425 2.0825 -4.5625 1.0625 C-3.5625 0.0625 -3.5625 0.0625 0 0 Z " fill="#A29DEB" transform="translate(312.5625,247.9375)"/>
<path d="M0 0 C0.33 0 0.66 0 1 0 C1.33 4.95 1.66 9.9 2 15 C-1 12 -1 12 -1.07421875 9.08203125 C-0.94660156 8.00308594 -0.81898438 6.92414063 -0.6875 5.8125 C-0.56761719 4.72582031 -0.44773438 3.63914063 -0.32421875 2.51953125 C-0.21722656 1.68808594 -0.11023438 0.85664063 0 0 Z " fill="#D8A6BC" transform="translate(162,162)"/>
<path d="M0 0 C0.33 0.66 0.66 1.32 1 2 C0.0625 4.125 0.0625 4.125 -1 6 C-2.65 6 -4.3 6 -6 6 C-3.375 1.125 -3.375 1.125 0 0 Z " fill="#9F9DF3" transform="translate(346,291)"/>
<path d="M0 0 C0.66 0 1.32 0 2 0 C2 3 2 3 0.25 5.1875 C-2 7 -2 7 -6 7 C-6 6.34 -6 5.68 -6 5 C-4.68 4.67 -3.36 4.34 -2 4 C-2 3.34 -2 2.68 -2 2 C-1.34 2 -0.68 2 0 2 C0 1.34 0 0.68 0 0 Z " fill="#B4B1EA" transform="translate(203,274)"/>
<path d="M0 0 C-0.33 0.66 -0.66 1.32 -1 2 C-2.670625 2.2165625 -2.670625 2.2165625 -4.375 2.4375 C-7.93117808 2.98932074 -8.93374609 3.20448001 -11 6 C-11 4.35 -11 2.7 -11 1 C-7.32589215 -0.17571451 -3.83070817 -0.07366746 0 0 Z " fill="#BA7996" transform="translate(207,155)"/>
<path d="M0 0 C0 1.65 0 3.3 0 5 C-0.99 4.01 -1.98 3.02 -3 2 C-4.65 2.66 -6.3 3.32 -8 4 C-8 3.01 -8 2.02 -8 1 C-5.29120665 -0.35439668 -2.99066732 -0.06501451 0 0 Z " fill="#AFADEF" transform="translate(352,276)"/>
<path d="M0 0 C-1.24976756 3.65316671 -1.67098753 4.78065836 -5 7 C-5 5.02 -5 3.04 -5 1 C-2 0 -2 0 0 0 Z " fill="#AEADEE" transform="translate(182,269)"/>
<path d="M0 0 C1.98 0.66 3.96 1.32 6 2 C6 3.32 6 4.64 6 6 C3.37812506 4.95125002 2.20628639 4.35068687 0.75 1.875 C0.5025 1.25625 0.255 0.6375 0 0 Z " fill="#CE8DAB" transform="translate(347,192)"/>
<path d="M0 0 C2.64 0 5.28 0 8 0 C8 0.99 8 1.98 8 3 C5.6568787 2.74438677 3.32156597 2.40729228 1 2 C0.67 1.34 0.34 0.68 0 0 Z " fill="#C985A3" transform="translate(311,155)"/>
<path d="M0 0 C0.66 0.66 1.32 1.32 2 2 C1.01 4.97 0.02 7.94 -1 11 C-1.33 11 -1.66 11 -2 11 C-2 8.36 -2 5.72 -2 3 C-1.34 3 -0.68 3 0 3 C0 2.01 0 1.02 0 0 Z " fill="#B5B1F2" transform="translate(263,297)"/>
<path d="M0 0 C0.66 0 1.32 0 2 0 C2 0.99 2 1.98 2 3 C2.66 3 3.32 3 4 3 C3.67 3.99 3.34 4.98 3 6 C2.01 5.67 1.02 5.34 0 5 C-0.33 4.01 -0.66 3.02 -1 2 C-0.67 1.34 -0.34 0.68 0 0 Z " fill="#A3A0F1" transform="translate(154,285)"/>
<path d="M0 0 C0.33 0 0.66 0 1 0 C1.0270043 1.45823212 1.04639787 2.91660675 1.0625 4.375 C1.07410156 5.18710938 1.08570313 5.99921875 1.09765625 6.8359375 C1 9 1 9 0 11 C-1.32 10.67 -2.64 10.34 -4 10 C-2.68 9.34 -1.36 8.68 0 8 C0 5.36 0 2.72 0 0 Z " fill="#CE89A6" transform="translate(286,216)"/>
<path d="M0 0 C3.3 0.33 6.6 0.66 10 1 C9.67 1.99 9.34 2.98 9 4 C5.85262818 3.30058404 2.97411124 2.23921302 0 1 C0 0.67 0 0.34 0 0 Z " fill="#C47B9B" transform="translate(103,155)"/>
<path d="M0 0 C1.32 0 2.64 0 4 0 C4 0.66 4 1.32 4 2 C3.34 2 2.68 2 2 2 C2 2.66 2 3.32 2 4 C0.02 4.99 0.02 4.99 -2 6 C-1.34 4.02 -0.68 2.04 0 0 Z " fill="#B1B0F0" transform="translate(349,319)"/>
<path d="M0 0 C0.33 0.99 0.66 1.98 1 3 C1.66 3.33 2.32 3.66 3 4 C1.02 4.99 1.02 4.99 -1 6 C-1.33 5.01 -1.66 4.02 -2 3 C-2.66 3 -3.32 3 -4 3 C-3.67 2.34 -3.34 1.68 -3 1 C-2.01 1.33 -1.02 1.66 0 2 C0 1.34 0 0.68 0 0 Z " fill="#8F8DF0" transform="translate(298,290)"/>
<path d="M0 0 C2.13093906 1.06546953 3.36587557 2.29159719 5 4 C4.01 4.99 3.02 5.98 2 7 C0.5393715 4.35261084 0 3.10551666 0 0 Z " fill="#8F8BF0" transform="translate(153,289)"/>
<path d="M0 0 C0.99 0 1.98 0 3 0 C2.01 2.97 1.02 5.94 0 9 C-0.33 9 -0.66 9 -1 9 C-0.67 6.03 -0.34 3.06 0 0 Z " fill="#A9A4EF" transform="translate(167,288)"/>
<path d="M0 0 C0.66 0 1.32 0 2 0 C2 1.98 2 3.96 2 6 C2.66 6 3.32 6 4 6 C3.34 7.32 2.68 8.64 2 10 C1.34 6.7 0.68 3.4 0 0 Z " fill="#D69EB8" transform="translate(321,208)"/>
</svg>
